<?xml version="1.0" encoding="UTF-8"?><svg id="_레이어_1" xmlns="http://www.w3.org/2000/svg" viewBox="0 0 540 197"><defs><style>.cls-1{fill:#eb4c60;stroke-width:0px;}</style></defs><path class="cls-1" d="m271.39,67.44v64.24h-21.46v-3.44c-4.77,3.18-10.46,5.17-17.62,5.17-17.35,0-31.92-14.83-31.92-33.91s14.57-33.77,31.92-33.77c7.15,0,12.85,1.85,17.62,5.03v-3.31h21.46Zm-21.46,41.99v-19.87c-4.11-4.5-8.61-5.7-13.24-5.7-8.74,0-15.23,6.76-15.23,15.63s6.49,15.63,15.23,15.63c4.64,0,9.14-1.19,13.24-5.7Z"/><path class="cls-1" d="m285.95,45.32c0-7.02,5.56-12.19,12.58-12.19s12.58,5.17,12.58,12.19-5.7,12.05-12.58,12.05-12.58-5.17-12.58-12.05Zm23.44,22.12v64.24h-21.46v-64.24h21.46Z"/><path class="cls-1" d="m369.53,86.78c-10.46.4-17.09,3.18-22.12,8.08v36.82h-21.59v-64.24h21.59v6.89c5.7-4.9,12.58-7.95,22.12-7.95v20.4Z"/><path class="cls-1" d="m401.71,131.94c0,19.87-6.23,31.39-31.66,31.92l-1.85-17.88c9.4-.93,11.92-3.71,11.92-11.13v-67.42h21.59v64.5Zm-23.44-86.62c0-7.02,5.7-12.19,12.58-12.19s12.58,5.17,12.58,12.19-5.56,12.05-12.58,12.05-12.58-5.17-12.58-12.05Z"/><path class="cls-1" d="m484.49,94.99v36.69h-21.46v-33.25c0-9.14-4.64-13.24-11.79-13.24-3.84,0-7.95,1.99-11.66,6.09v40.4h-21.59v-64.24h21.59v4.24c5.17-3.84,10.73-5.96,17.62-5.96,16.16,0,27.28,10.99,27.28,29.27Z"/><path class="cls-1" d="m519.85,131.94c0,19.87-6.23,31.39-31.66,31.92l-1.85-17.88c9.4-.93,11.92-3.71,11.92-11.13v-67.42h21.59v64.5Zm-23.44-86.62c0-7.02,5.7-12.19,12.58-12.19s12.58,5.17,12.58,12.19-5.56,12.05-12.58,12.05-12.58-5.17-12.58-12.05Z"/><g id="k8DrTQ"><path class="cls-1" d="m41.53,98.1c-3.55-3.93-7.42-7.88-10.91-12.13-6.94-8.45-11.56-17.96-11.73-29.14-.29-18.41,13.99-33.81,32.33-35.27,8.62-.69,16.3,2.08,23.77,5.76,30.21,14.89,60.42,29.78,90.55,44.82,7.1,3.54,13.22,8.3,16.66,15.88,4.45,9.81,2.78,21.99-5.07,29.36-4.03,3.78-8.8,7.05-13.75,9.53-23.78,11.9-47.68,23.56-71.65,35.08-8.94,4.3-17.99,8.5-27.33,11.82-17.81,6.33-41.8-5.09-45.47-27.87-1.97-12.26,2.06-22.93,9.3-32.48,4.04-5.33,8.76-10.15,13.3-15.36Zm7.57-6.23c1.04-.76,1.93-1.39,2.79-2.06,8.49-6.56,17.5-12.26,27.63-15.96,7.53-2.75,15.22-4.33,23.25-2.31,18.77,4.72,26.05,27.03,15.78,43.15-6.29,9.88-18.16,13.99-30.92,11.16-12.71-2.82-23.51-9.35-33.66-17.17q-4.84-3.73-9.1.49c-.85.84-1.73,1.66-2.55,2.54-5.44,5.82-10.38,11.98-12.83,19.74-6.37,20.15,9.83,38.18,30.4,33.38,6.27-1.47,12.26-4.45,18.14-7.24,24.84-11.8,49.61-23.76,74.36-35.74,4.47-2.16,8.95-4.4,13.1-7.1,11.76-7.66,11.92-22.71.3-30.56-4.18-2.82-8.72-5.14-13.23-7.42-21.52-10.84-43.04-21.69-64.66-32.33-8.41-4.14-16.86-8.38-25.68-11.46-19.37-6.77-37.12,8.94-33.25,29.14,2.43,12.67,11.13,21.24,20.14,29.75Zm8.19,6.6c2.37,1.82,4.26,3.41,6.28,4.8,8.43,5.83,17.08,11.3,27.43,13,6.95,1.14,13.48.22,18.42-5.47,4.96-5.71,5.74-14.63,2.06-21.21-3.78-6.74-11.23-9.99-19.63-8.63-13.19,2.13-23.76,9.34-34.56,17.5Z"/></g></svg>